<?xml version="1.0" encoding="UTF-8"?>
<svg xmlns="http://www.w3.org/2000/svg" viewBox="0 0 1813.98 370.47">
  <defs>
    <style>
      .cls-1, .cls-2 {
        fill: #df335c;
      }

      .cls-3, .cls-4 {
        fill: #133a5f;
      }

      .cls-5 {
        fill: #86a2c4;
      }

      .cls-6 {
        fill: #fff;
        stroke: #009fe3;
        stroke-miterlimit: 10;
        stroke-width: 3px;
      }

      .cls-7, .cls-8, .cls-9 {
        fill: #009fe3;
      }

      .cls-10 {
        fill: #9d9d9c;
      }

      .cls-11 {
        fill: #337abe;
      }

      .cls-2 {
        font-family: OCRAStd, 'OCR A Std';
        font-size: 172.87px;
        letter-spacing: -.15em;
      }

      .cls-4 {
        letter-spacing: 0em;
      }

      .cls-12 {
        fill: #245a85;
      }

      .cls-13 {
        fill: #61a8dd;
      }

      .cls-8 {
        letter-spacing: -.1em;
      }

      .cls-9 {
        letter-spacing: -.1em;
      }

      .cls-14 {
        fill: #1d1d1b;
      }

      .cls-15 {
        font-family: GoodTimesRg-Regular, 'Good Times';
        font-size: 57.62px;
      }
    </style>
  </defs>
  <g id="Capa_4" data-name="Capa 4">
    <g>
      <g>
        <polygon class="cls-6" points="400.85 359.78 220.97 186.65 216.41 142.87 171.13 99.29 130.87 99.94 60.14 31.87 61.33 30.63 131.55 98.22 171.81 97.57 218.04 142.07 222.6 185.85 402.03 358.55 400.85 359.78"/>
        <g>
          <path class="cls-6" d="M56.54,36.13c-2.56-2.46-2.64-6.53-.17-9.09,2.46-2.56,6.53-2.64,9.09-.17,2.56,2.46,2.64,6.53,.17,9.09-2.46,2.56-6.53,2.64-9.09,.17Z"/>
          <path class="cls-6" d="M55.95,36.75c2.89,2.79,7.52,2.7,10.3-.2,2.79-2.89,2.7-7.52-.2-10.3-2.89-2.79-7.52-2.7-10.3,.2-2.79,2.89-2.7,7.52,.2,10.3,2.89,2.79-2.89-2.79,0,0Zm8.92-9.27c2.22,2.13,2.28,5.67,.15,7.88-2.13,2.22-5.67,2.28-7.88,.15-2.22-2.13-2.28-5.67-.15-7.88,2.13-2.22,5.67-2.28,7.88-.15,2.22,2.13-2.22-2.13,0,0Z"/>
        </g>
        <g>
          <path class="cls-6" d="M396.72,363.55c2.56,2.46,6.63,2.38,9.09-.17,2.46-2.56,2.38-6.63-.17-9.09-2.56-2.46-6.63-2.38-9.09,.17-2.46,2.56-2.38,6.63,.17,9.09Z"/>
          <path class="cls-6" d="M396.13,364.16c-2.89-2.79-2.98-7.41-.2-10.3,2.79-2.89,7.41-2.98,10.3-.2,2.89,2.79,2.98,7.41,.2,10.3-2.79,2.89-7.41,2.98-10.3,.2-2.89-2.79,2.89,2.79,0,0Zm8.92-9.27c-2.22-2.13-5.75-2.06-7.88,.15-2.13,2.22-2.06,5.75,.15,7.88,2.22,2.13,5.75,2.06,7.88-.15,2.13-2.22,2.06-5.75-.15-7.88-2.22-2.13,2.22,2.13,0,0Z"/>
        </g>
      </g>
      <g>
        <polygon class="cls-6" points="183.17 348.02 181.96 346.81 205.3 323.65 182.65 169.88 211.88 146.84 213.32 102.56 185.61 81.36 185.62 80.92 187.81 13.43 189.52 13.49 187.35 80.53 215.05 101.74 215.04 102.18 213.56 147.69 184.49 170.61 207.12 324.26 183.17 348.02"/>
        <g>
          <path class="cls-6" d="M182.23,13.62c.12-3.55,3.09-6.33,6.64-6.22,3.55,.12,6.33,3.09,6.22,6.64-.12,3.55-3.09,6.33-6.64,6.22s-6.33-3.09-6.22-6.64Z"/>
          <path class="cls-6" d="M181.38,13.59c-.13,4.01,3.03,7.39,7.04,7.52,4.01,.13,7.39-3.03,7.52-7.04,.13-4.01-3.03-7.39-7.04-7.52-4.01-.13-7.39,3.03-7.52,7.04-.13,4.01,.13-4.01,0,0Zm12.85,.42c-.1,3.07-2.68,5.49-5.75,5.39-3.07-.1-5.49-2.68-5.39-5.75,.1-3.07,2.68-5.49,5.75-5.39,3.07,.1,5.49,2.68,5.39,5.75-.1,3.07,.1-3.07,0,0Z"/>
        </g>
        <g>
          <path class="cls-6" d="M178.3,342.59c-2.52,2.5-2.54,6.57-.04,9.09s6.57,2.54,9.09,.04c2.52-2.5,2.54-6.57,.04-9.09s-6.57-2.54-9.09-.04Z"/>
          <path class="cls-6" d="M177.69,341.98c2.85-2.83,7.47-2.81,10.3,.04,2.83,2.85,2.81,7.47-.04,10.3-2.85,2.83-7.47,2.81-10.3-.04-2.83-2.85-2.81-7.47,.04-10.3,2.85-2.83-2.85,2.83,0,0Zm9.06,9.13c2.18-2.17,2.2-5.7,.03-7.88-2.17-2.18-5.7-2.2-7.88-.03-2.18,2.17-2.2,5.7-.03,7.88,2.17,2.18,5.7,2.2,7.88,.03,2.18-2.17-2.18,2.17,0,0Z"/>
        </g>
      </g>
      <g>
        <polygon class="cls-6" points="337.67 355.69 202.96 226.03 204.34 187.96 170.36 155.27 135.15 160.77 82.84 110.43 84.03 109.2 135.72 158.95 170.94 153.45 206.07 187.26 204.69 225.33 338.86 354.46 337.67 355.69"/>
        <g>
          <path class="cls-6" d="M79.24,114.7c-2.56-2.46-2.64-6.53-.17-9.09,2.46-2.56,6.53-2.64,9.09-.17,2.56,2.46,2.64,6.53,.17,9.09-2.46,2.56-6.53,2.64-9.09,.17Z"/>
          <path class="cls-6" d="M78.65,115.31c2.89,2.79,7.52,2.7,10.3-.2,2.79-2.89,2.7-7.52-.2-10.3-2.89-2.79-7.52-2.7-10.3,.2-2.79,2.89-2.7,7.52,.2,10.3,2.89,2.79-2.89-2.79,0,0Zm8.92-9.27c2.22,2.13,2.28,5.67,.15,7.88s-5.67,2.28-7.88,.15c-2.22-2.13-2.28-5.67-.15-7.88,2.13-2.22,5.67-2.28,7.88-.15,2.22,2.13-2.22-2.13,0,0Z"/>
        </g>
        <g>
          <path class="cls-6" d="M333.55,359.46c2.56,2.46,6.63,2.38,9.09-.17,2.46-2.56,2.38-6.63-.17-9.09-2.56-2.46-6.63-2.38-9.09,.17-2.46,2.56-2.38,6.63,.17,9.09Z"/>
          <path class="cls-6" d="M332.95,360.07c-2.89-2.79-2.98-7.41-.2-10.3,2.79-2.89,7.41-2.98,10.3-.2,2.89,2.79,2.98,7.41,.2,10.3-2.79,2.89-7.41,2.98-10.3,.2-2.89-2.79,2.89,2.79,0,0Zm8.92-9.27c-2.22-2.13-5.75-2.06-7.88,.15-2.13,2.22-2.06,5.75,.15,7.88,2.22,2.13,5.75,2.06,7.88-.15,2.13-2.22,2.06-5.75-.15-7.88-2.22-2.13,2.22,2.13,0,0Z"/>
        </g>
      </g>
      <g>
        <polygon class="cls-6" points="274.38 352.17 139.67 222.51 141.05 184.44 107.07 151.74 71.86 157.24 19.55 106.9 20.74 105.67 72.43 155.42 107.65 149.92 142.78 183.74 141.4 221.81 275.57 350.93 274.38 352.17"/>
        <g>
          <path class="cls-6" d="M15.95,111.17c-2.56-2.46-2.64-6.53-.17-9.09,2.46-2.56,6.53-2.64,9.09-.17,2.56,2.46,2.64,6.53,.17,9.09-2.46,2.56-6.53,2.64-9.09,.17Z"/>
          <path class="cls-6" d="M15.36,111.79c2.89,2.79,7.52,2.7,10.3-.2,2.79-2.89,2.7-7.52-.2-10.3-2.89-2.79-7.52-2.7-10.3,.2-2.79,2.89-2.7,7.52,.2,10.3,2.89,2.79-2.89-2.79,0,0Zm8.92-9.27c2.22,2.13,2.28,5.67,.15,7.88-2.13,2.22-5.67,2.28-7.88,.15-2.22-2.13-2.28-5.67-.15-7.88,2.13-2.22,5.67-2.28,7.88-.15,2.22,2.13-2.22-2.13,0,0Z"/>
        </g>
        <g>
          <path class="cls-6" d="M270.26,355.93c2.56,2.46,6.63,2.38,9.09-.17,2.46-2.56,2.38-6.63-.17-9.09-2.56-2.46-6.63-2.38-9.09,.17-2.46,2.56-2.38,6.63,.17,9.09Z"/>
          <path class="cls-6" d="M269.66,356.55c-2.89-2.79-2.98-7.41-.2-10.3,2.79-2.89,7.41-2.98,10.3-.2,2.89,2.79,2.98,7.41,.2,10.3-2.79,2.89-7.41,2.98-10.3,.2-2.89-2.79,2.89,2.79,0,0Zm8.92-9.27c-2.22-2.13-5.75-2.06-7.88,.15-2.13,2.22-2.06,5.75,.15,7.88,2.22,2.13,5.75,2.06,7.88-.15,2.13-2.22,2.06-5.75-.15-7.88-2.22-2.13,2.22,2.13,0,0Z"/>
        </g>
      </g>
      <g>
        <polygon class="cls-6" points="20.68 258.1 20.18 256.46 197.28 202.02 229.69 221.75 274.35 208.02 286.43 174.61 355.16 153.48 355.66 155.12 287.75 175.99 275.67 209.41 229.45 223.61 197.04 203.88 20.68 258.1"/>
        <g>
          <path class="cls-6" d="M353.17,148.26c3.39-1.04,6.99,.86,8.04,4.26,1.04,3.39-.86,6.99-4.26,8.04-3.39,1.04-6.99-.86-8.04-4.26-1.04-3.39,.86-6.99,4.26-8.04Z"/>
          <path class="cls-6" d="M352.92,147.44c-3.84,1.18-6,5.26-4.82,9.1,1.18,3.84,5.26,6,9.1,4.82,3.84-1.18,6-5.26,4.82-9.1-1.18-3.84-5.26-6-9.1-4.82-3.84,1.18,3.84-1.18,0,0Zm3.78,12.29c-2.94,.9-6.06-.75-6.97-3.69s.75-6.06,3.69-6.97c2.94-.9,6.06,.75,6.97,3.69,.9,2.94-.75,6.06-3.69,6.97-2.94,.9,2.94-.9,0,0Z"/>
        </g>
        <g>
          <path class="cls-6" d="M18.89,251.03c-3.39,1.04-5.3,4.64-4.26,8.04s4.64,5.3,8.04,4.26c3.39-1.04,5.3-4.64,4.26-8.04-1.04-3.39-4.64-5.3-8.04-4.26Z"/>
          <path class="cls-6" d="M18.64,250.21c3.84-1.18,7.92,.98,9.1,4.82,1.18,3.84-.98,7.92-4.82,9.1-3.84,1.18-7.92-.98-9.1-4.82-1.18-3.84,.98-7.92,4.82-9.1,3.84-1.18-3.84,1.18,0,0Zm3.78,12.29c2.94-.9,4.59-4.03,3.69-6.97-.9-2.94-4.03-4.59-6.97-3.69-2.94,.9-4.59,4.03-3.69,6.97,.9,2.94,4.03,4.59,6.97,3.69,2.94-.9-2.94,.9,0,0Z"/>
        </g>
      </g>
      <g>
        <polygon class="cls-6" points="78.19 293.21 76.69 292.38 96.97 255.88 97.28 255.78 169.41 231.54 169.69 231.64 255.28 262.59 288.96 281.75 336.39 267.17 349.71 233.38 422.95 210.86 423.45 212.5 351 234.77 337.68 268.56 288.75 283.6 254.57 264.13 169.39 233.35 98.14 257.29 78.19 293.21"/>
        <g>
          <path class="cls-6" d="M420.96,205.64c3.39-1.04,6.99,.86,8.04,4.26s-.86,6.99-4.26,8.04c-3.39,1.04-6.99-.86-8.04-4.26-1.04-3.39,.86-6.99,4.26-8.04Z"/>
          <path class="cls-6" d="M420.71,204.83c-3.84,1.18-6,5.26-4.82,9.1,1.18,3.84,5.26,6,9.1,4.82,3.84-1.18,6-5.26,4.82-9.1-1.18-3.84-5.26-6-9.1-4.82-3.84,1.18,3.84-1.18,0,0Zm3.78,12.29c-2.94,.9-6.06-.75-6.97-3.69-.9-2.94,.75-6.06,3.69-6.97,2.94-.9,6.06,.75,6.97,3.69,.9,2.94-.75,6.06-3.69,6.97-2.94,.9,2.94-.9,0,0Z"/>
        </g>
        <g>
          <path class="cls-6" d="M72,289.36c-1.72,3.1-.61,7.02,2.5,8.74,3.1,1.72,7.02,.61,8.74-2.5,1.72-3.1,.61-7.02-2.5-8.74-3.1-1.72-7.02-.61-8.74,2.5Z"/>
          <path class="cls-6" d="M71.25,288.94c1.95-3.51,6.39-4.78,9.91-2.83,3.51,1.95,4.78,6.39,2.83,9.91-1.95,3.51-6.39,4.78-9.91,2.83-3.51-1.95-4.78-6.39-2.83-9.91,1.95-3.51-1.95,3.51,0,0Zm11.24,6.24c1.49-2.69,.52-6.09-2.17-7.58-2.69-1.49-6.09-.52-7.58,2.17-1.49,2.69-.52,6.09,2.17,7.58s6.09,.52,7.58-2.17c1.49-2.69-1.49,2.69,0,0Z"/>
        </g>
      </g>
      <g>
        <rect class="cls-6" x="164.38" y="36.42" width="1.71" height="77.08" transform="translate(.4 150.79) rotate(-49.11)"/>
        <g>
          <path class="cls-6" d="M132.17,54.83c-2.68-2.32-2.98-6.39-.65-9.07,2.32-2.68,6.39-2.98,9.07-.65,2.68,2.32,2.98,6.39,.65,9.07-2.32,2.68-6.39,2.98-9.07,.65Z"/>
          <path class="cls-6" d="M131.61,55.47c3.04,2.63,7.65,2.3,10.28-.74,2.63-3.04,2.3-7.65-.74-10.28-3.04-2.63-7.65-2.3-10.28,.74-2.63,3.04-2.3,7.65,.74,10.28,3.04,2.63-3.04-2.63,0,0Zm8.42-9.72c2.32,2.01,2.58,5.54,.56,7.86-2.01,2.32-5.54,2.58-7.86,.56-2.32-2.01-2.58-5.54-.56-7.86s5.54-2.58,7.86-.56c2.32,2.01-2.32-2.01,0,0Z"/>
        </g>
      </g>
      <g>
        <polygon class="cls-6" points="387.26 294.16 339.76 255.18 340.84 253.85 387.03 291.76 419 253.28 420.32 254.37 387.26 294.16"/>
        <g>
          <path class="cls-6" d="M414.48,249.99c2.27-2.73,6.32-3.11,9.05-.84s3.11,6.32,.84,9.05c-2.27,2.73-6.32,3.11-9.05,.84s-3.11-6.32-.84-9.05Z"/>
          <path class="cls-6" d="M413.82,249.45c-2.57,3.09-2.14,7.69,.95,10.26,3.09,2.57,7.69,2.14,10.26-.95,2.57-3.09,2.14-7.69-.95-10.26-3.09-2.57-7.69-2.14-10.26,.95-2.57,3.09,2.57-3.09,0,0Zm9.89,8.22c-1.96,2.36-5.49,2.69-7.85,.73-2.36-1.96-2.69-5.49-.73-7.85,1.96-2.36,5.49-2.69,7.85-.73,2.36,1.96,2.69,5.49,.73,7.85-1.96,2.36,1.97-2.37,0,0Z"/>
        </g>
      </g>
      <g>
        <polygon class="cls-6" points="145.72 218.52 105.9 185.83 78.93 218.28 77.62 217.19 105.67 183.43 146.81 217.2 145.72 218.52"/>
        <g>
          <path class="cls-6" d="M83.46,221.56c-2.27,2.73-6.32,3.11-9.05,.84-2.73-2.27-3.11-6.32-.84-9.05,2.27-2.73,6.32-3.11,9.05-.84,2.73,2.27,3.11,6.32,.84,9.05Z"/>
          <path class="cls-6" d="M84.11,222.11c2.57-3.09,2.14-7.69-.95-10.26-3.09-2.57-7.69-2.14-10.26,.95-2.57,3.09-2.14,7.69,.95,10.26,3.09,2.57,7.69,2.14,10.26-.95,2.57-3.09-2.57,3.09,0,0Zm-9.89-8.22c1.96-2.36,5.49-2.69,7.85-.73,2.37,1.96,2.69,5.49,.73,7.85-1.97,2.36-5.49,2.69-7.85,.73-2.37-1.96-2.69-5.49-.73-7.85,1.96-2.36-1.97,2.36,0,0Z"/>
        </g>
      </g>
      <g>
        <polygon class="cls-6" points="235.98 90.2 234.38 89.61 251.4 43.26 212.63 32.19 213.1 30.54 253.64 42.12 235.98 90.2"/>
        <g>
          <path class="cls-6" d="M211.45,37.65c-3.41-.98-5.39-4.53-4.42-7.95,.98-3.41,4.53-5.39,7.95-4.42,3.41,.98,5.39,4.53,4.42,7.95-.98,3.41-4.53,5.39-7.95,4.42Z"/>
          <path class="cls-6" d="M211.22,38.47c3.86,1.1,7.9-1.14,9.01-5,1.1-3.86-1.14-7.9-5-9.01-3.86-1.1-7.9,1.14-9.01,5-1.1,3.86,1.14,7.9,5,9.01,3.86,1.1-3.86-1.1,0,0Zm3.53-12.37c2.96,.84,4.67,3.94,3.83,6.89s-3.94,4.67-6.89,3.83c-2.96-.84-4.67-3.94-3.83-6.89,.84-2.96,3.94-4.67,6.89-3.83,2.96,.84-2.96-.84,0,0Z"/>
        </g>
      </g>
    </g>
  </g>
  <g id="Capa_7" data-name="Capa 7">
    <path class="cls-3" d="M168.15,302l-51.55,58.03c-4.32,4.32-11.39,4.32-15.71,0l-16.68-16.68c-4.32-4.32-4.32-11.39,0-15.71l58.03-51.55c4.32-4.32,10.68-5.03,14.14-1.57l13.35,13.35c3.46,3.46,2.75,9.82-1.57,14.14Z"/>
    <rect class="cls-5" x="160.53" y="264.49" width="20.04" height="20.04" transform="translate(-144.15 201) rotate(-45)"/>
    <g>
      <circle class="cls-1" cx="257.72" cy="186.51" r="113.84"/>
      <path class="cls-3" d="M257.72,308.9c-32.69,0-63.43-12.73-86.55-35.85h0c-47.72-47.72-47.72-125.37,0-173.09,23.12-23.12,53.85-35.85,86.55-35.85s63.43,12.73,86.54,35.85c23.12,23.12,35.85,53.85,35.85,86.55s-12.73,63.43-35.85,86.55c-23.12,23.12-53.85,35.85-86.54,35.85Zm-74.45-47.94c19.89,19.89,46.33,30.84,74.45,30.84s54.56-10.95,74.45-30.84c19.89-19.89,30.84-46.33,30.84-74.45s-10.95-54.57-30.84-74.45c-19.89-19.89-46.33-30.84-74.45-30.84s-54.57,10.95-74.45,30.84c-41.05,41.05-41.04,107.85,0,148.9h0Z"/>
    </g>
    <g>
      <polygon class="cls-7" points="382.64 153.41 237.02 299.02 172.82 265.04 146.13 209.09 292.23 63 382.64 153.41"/>
      <g>
        <polygon class="cls-12" points="231.56 299.45 230.35 298.25 257.83 270.76 259.6 239.18 287.12 211.66 305.15 211.66 340.61 176.2 331.02 135.23 339.19 127.06 340.4 128.27 332.9 135.77 342.49 176.73 305.86 213.37 287.83 213.37 261.27 239.93 259.5 271.51 231.56 299.45"/>
        <g>
          <circle class="cls-1" cx="341.56" cy="125.9" r="2.49"/>
          <path class="cls-12" d="M341.55,129.25c-.86,0-1.71-.33-2.36-.98-1.3-1.3-1.3-3.43,0-4.73,1.3-1.31,3.43-1.3,4.73,0,1.3,1.3,1.3,3.43,0,4.73-.65,.65-1.51,.98-2.36,.98Zm0-4.97c-.42,0-.84,.16-1.16,.48-.64,.64-.64,1.67,0,2.31,.64,.64,1.67,.63,2.31,0,.64-.64,.64-1.67,0-2.31-.32-.32-.74-.48-1.15-.48Z"/>
        </g>
      </g>
      <g>
        <polygon class="cls-12" points="149.31 217.21 148.1 216 174.79 189.32 197.06 193.57 205.43 185.19 201.18 162.92 222.53 141.58 261.01 141.17 274.36 127.81 273.87 102.25 285.11 91.01 286.32 92.21 275.59 102.95 276.08 128.51 261.72 142.87 223.24 143.28 203.03 163.49 207.28 185.76 197.63 195.42 175.35 191.17 149.31 217.21"/>
        <g>
          <circle class="cls-1" cx="287.47" cy="89.85" r="2.49"/>
          <path class="cls-12" d="M287.48,93.19c-.86,0-1.71-.33-2.36-.98-.63-.63-.98-1.47-.98-2.36s.35-1.73,.98-2.36c1.3-1.3,3.43-1.3,4.73,0h0c1.3,1.3,1.3,3.42,0,4.73-.65,.65-1.51,.98-2.36,.98Zm0-4.97c-.42,0-.84,.16-1.16,.48-.31,.31-.48,.72-.48,1.15s.17,.85,.48,1.15c.64,.64,1.67,.64,2.31,0,.64-.64,.64-1.67,0-2.31-.32-.32-.74-.48-1.16-.48Z"/>
        </g>
      </g>
      <g>
        <g>
          <circle class="cls-1" cx="296.49" cy="152.94" r="2.49"/>
          <path class="cls-12" d="M296.49,156.29c-.86,0-1.71-.33-2.36-.98-1.3-1.3-1.3-3.43,0-4.73,1.3-1.3,3.42-1.3,4.73,0h0c1.3,1.3,1.3,3.43,0,4.73-.65,.65-1.51,.98-2.36,.98Zm0-4.97c-.42,0-.84,.16-1.15,.48-.64,.64-.64,1.67,0,2.31,.64,.63,1.67,.64,2.31,0,.64-.64,.64-1.67,0-2.31-.32-.32-.74-.48-1.16-.48Z"/>
        </g>
        <polygon class="cls-12" points="190.98 274.16 189.77 272.96 210.94 251.79 232.98 247.78 241.56 239.19 241.8 231.62 242.04 231.38 280.48 192.94 279.35 168.87 294.12 154.1 295.33 155.31 281.09 169.55 282.23 193.62 243.49 232.35 243.25 239.92 233.81 249.37 211.77 253.38 190.98 274.16"/>
      </g>
      <g>
        <g>
          <circle class="cls-1" cx="256.54" cy="185.59" r="2.49"/>
          <path class="cls-12" d="M256.54,188.93c-.86,0-1.71-.33-2.36-.98-1.3-1.3-1.3-3.43,0-4.73,1.3-1.3,3.43-1.3,4.73,0,1.3,1.3,1.3,3.43,0,4.73-.65,.65-1.51,.98-2.36,.98Zm0-4.98c-.42,0-.84,.16-1.16,.48-.64,.64-.64,1.67,0,2.31,.64,.64,1.67,.64,2.31,0,.64-.64,.64-1.67,0-2.31-.32-.32-.74-.48-1.16-.48Z"/>
        </g>
        <polygon class="cls-12" points="170 248.24 168.79 247.03 216.17 199.66 239.94 200.98 254.18 186.75 255.39 187.95 240.61 202.73 216.83 201.41 170 248.24"/>
      </g>
      <g>
        <polygon class="cls-10" points="177.54 254.85 171.49 248.8 216.03 204.26 251.31 206.58 265.05 192.84 262.74 157.56 300.8 119.5 306.84 125.54 271.52 160.86 273.84 196.15 254.62 215.37 219.34 213.05 177.54 254.85"/>
        <g>
          <circle class="cls-1" cx="310.61" cy="115.73" r="15.12"/>
          <path class="cls-10" d="M310.61,135.13c-5.18,0-10.05-2.02-13.72-5.68-7.56-7.56-7.56-19.87,0-27.43,3.66-3.66,8.53-5.68,13.72-5.68s10.05,2.02,13.72,5.68h0c7.56,7.56,7.56,19.87,0,27.43-3.66,3.66-8.53,5.68-13.72,5.68Zm0-30.25c-2.9,0-5.62,1.13-7.67,3.18-4.23,4.23-4.23,11.11,0,15.34,2.05,2.05,4.77,3.18,7.67,3.18s5.62-1.13,7.67-3.18c4.23-4.23,4.23-11.11,0-15.34h0c-2.05-2.05-4.77-3.18-7.67-3.18Z"/>
        </g>
      </g>
      <g>
        <polygon class="cls-10" points="162.86 235.02 156.81 228.98 177.26 208.52 194.82 205.63 227.78 172.67 233.83 178.71 198.92 213.62 181.37 216.51 162.86 235.02"/>
        <g>
          <circle class="cls-1" cx="239.05" cy="167.45" r="15.12"/>
          <path class="cls-10" d="M239.05,186.85c-5.18,0-10.05-2.02-13.72-5.68-7.56-7.56-7.56-19.87,0-27.43,3.66-3.66,8.54-5.68,13.72-5.68s10.05,2.02,13.72,5.68h0c7.56,7.56,7.56,19.87,0,27.43-3.66,3.66-8.53,5.68-13.72,5.68Zm0-30.25c-2.9,0-5.62,1.13-7.67,3.18-4.23,4.23-4.23,11.11,0,15.34,2.05,2.05,4.77,3.18,7.67,3.18s5.62-1.13,7.67-3.18c4.23-4.23,4.23-11.11,0-15.34h0c-2.05-2.05-4.77-3.18-7.67-3.18Z"/>
        </g>
      </g>
      <g>
        <polygon class="cls-10" points="228.08 295.98 222.04 289.94 247.23 264.74 248.91 230.37 294.24 185.04 300.28 191.09 257.29 234.08 255.61 268.45 228.08 295.98"/>
        <g>
          <circle class="cls-1" cx="305.5" cy="179.82" r="15.12"/>
          <path class="cls-10" d="M305.5,199.21c-4.97,0-9.93-1.89-13.72-5.67-7.56-7.56-7.56-19.87,0-27.43,7.56-7.56,19.87-7.56,27.43,0,7.56,7.56,7.56,19.87,0,27.43-3.78,3.78-8.75,5.67-13.72,5.67Zm0-30.23c-2.78,0-5.56,1.06-7.67,3.17-4.23,4.23-4.23,11.11,0,15.34,4.23,4.23,11.12,4.23,15.34,0,4.23-4.23,4.23-11.11,0-15.34-2.11-2.11-4.89-3.17-7.67-3.17Z"/>
        </g>
      </g>
      <g>
        <polygon class="cls-13" points="145.05 200.8 140.32 195.86 165.5 171.68 163.9 147.42 202.86 111.95 207.46 117.01 170.95 150.26 172.53 174.41 145.05 200.8"/>
        <path class="cls-13" d="M210.81,120.24c-2.92,0-5.85-1.11-8.07-3.34-2.16-2.16-3.34-5.02-3.34-8.07s1.19-5.92,3.34-8.07c4.45-4.45,11.69-4.45,16.15,0h0c4.45,4.45,4.45,11.69,0,16.14-2.22,2.23-5.15,3.34-8.07,3.34Zm0-15.98c-1.17,0-2.34,.45-3.24,1.34-.87,.86-1.34,2.01-1.34,3.24s.47,2.37,1.34,3.24c1.79,1.79,4.69,1.78,6.47,0,1.78-1.78,1.78-4.69,0-6.47-.89-.89-2.06-1.34-3.24-1.34Z"/>
      </g>
      <g>
        <polygon class="cls-13" points="247.65 304.13 242.74 299.37 279.7 261.32 303.94 262.91 349.83 217.02 354.67 221.86 306.59 269.94 282.41 268.35 247.65 304.13"/>
        <path class="cls-13" d="M357.91,225.2c-2.92,0-5.85-1.11-8.07-3.34-4.45-4.45-4.45-11.69,0-16.15,4.45-4.45,11.69-4.45,16.15,0h0c2.16,2.16,3.34,5.02,3.34,8.07s-1.19,5.92-3.34,8.07c-2.23,2.22-5.15,3.34-8.07,3.34Zm0-15.98c-1.17,0-2.34,.45-3.24,1.34-1.78,1.78-1.78,4.69,0,6.47s4.69,1.78,6.47,0c.87-.86,1.34-2.01,1.34-3.24s-.47-2.37-1.34-3.23h0c-.89-.89-2.06-1.34-3.24-1.34Z"/>
      </g>
    </g>
    <path class="cls-3" d="M332.18,260.96c-19.89,19.89-46.33,30.84-74.45,30.84s-54.57-10.95-74.45-30.84c-19.89-19.89-30.84-46.33-30.84-74.45,0-23.82,7.88-46.42,22.37-64.86-4.32-3.73-8.63-7.47-12.9-11.26-17.2,21.57-26.57,48.12-26.57,76.12,0,32.69,12.73,63.43,35.85,86.55,23.12,23.12,53.85,35.85,86.55,35.85s63.43-12.73,86.54-35.85c2.12-2.12,4.1-4.31,6.03-6.54-4.27-3.78-8.57-7.52-12.88-11.24-1.67,1.94-3.4,3.84-5.24,5.68Z"/>
    <g>
      <polygon class="cls-7" points="416.32 187.09 258.55 29.32 416.32 29.32 416.32 187.09"/>
      <path class="cls-11" d="M418.88,193.28L252.36,26.75h166.53V193.28ZM264.74,31.88l149.01,149.01V31.88h-149.01Z"/>
    </g>
  </g>
  <g id="Capa_5" data-name="Capa 5">
    <g>
      <text class="cls-2" transform="translate(434.16 205.48) scale(.91 1)"><tspan x="0" y="0">DATA CONSULTING</tspan></text>
      <text class="cls-2" transform="translate(434.16 203.79) scale(.91 1)"><tspan x="0" y="0">DATA CONSULTING</tspan></text>
      <text class="cls-15" transform="translate(728.31 308.83) scale(.91 1)"><tspan class="cls-1" x="0" y="0">@</tspan><tspan class="cls-14" x="48" y="0"> </tspan><tspan class="cls-7" x="64.94" y="0">THE </tspan><tspan class="cls-8" x="215.39" y="0">W</tspan><tspan class="cls-7" x="282.87" y="0">ORLD IS </tspan><tspan class="cls-9" x="583.07" y="0">Y</tspan><tspan class="cls-7" x="630.84" y="0">OUR</tspan><tspan class="cls-4" x="790.92" y="0"> </tspan><tspan class="cls-1" x="807.85" y="0">@</tspan></text>
    </g>
  </g>
</svg>